<svg xmlns="http://www.w3.org/2000/svg" xmlns:xlink="http://www.w3.org/1999/xlink" width="500" zoomAndPan="magnify" viewBox="0 0 375 374.999991" height="500" preserveAspectRatio="xMidYMid meet" version="1.0"><defs><g/><clipPath id="1677958fe2"><path d="M 119 165 L 290 165 L 290 290 L 119 290 Z M 119 165 " clip-rule="nonzero"/></clipPath><clipPath id="2e634b9c37"><path d="M 141.960938 165.472656 L 289.867188 204.359375 L 267.070312 291.0625 L 119.167969 252.175781 Z M 141.960938 165.472656 " clip-rule="nonzero"/></clipPath><clipPath id="ded5543ac4"><path d="M 141.960938 165.472656 L 289.867188 204.359375 L 267.449219 289.617188 L 119.546875 250.730469 Z M 141.960938 165.472656 " clip-rule="nonzero"/></clipPath><clipPath id="fc4d8c048f"><path d="M 119 165 L 290 165 L 290 290 L 119 290 Z M 119 165 " clip-rule="nonzero"/></clipPath><clipPath id="80d199b2e1"><path d="M 141.960938 165.472656 L 289.933594 204.378906 L 267.429688 289.96875 L 119.460938 251.066406 Z M 141.960938 165.472656 " clip-rule="nonzero"/></clipPath><clipPath id="b76ef827ac"><path d="M 141.96875 165.476562 L 289.929688 204.375 L 267.042969 291.417969 L 119.082031 252.515625 Z M 141.96875 165.476562 " clip-rule="nonzero"/></clipPath><clipPath id="cb23d737d9"><path d="M 141.96875 165.476562 L 289.929688 204.375 L 267.425781 289.96875 L 119.464844 251.066406 Z M 141.96875 165.476562 " clip-rule="nonzero"/></clipPath><clipPath id="314acccb3c"><path d="M 81.445312 101.367188 L 102.539062 101.367188 L 102.539062 274.804688 L 81.445312 274.804688 Z M 81.445312 101.367188 " clip-rule="nonzero"/></clipPath><clipPath id="09c744b984"><path d="M 81.445312 101.367188 L 102.445312 101.367188 L 102.445312 274.617188 L 81.445312 274.617188 Z M 81.445312 101.367188 " clip-rule="nonzero"/></clipPath><clipPath id="26a5841cc9"><path d="M 81.445312 123.632812 L 102.539062 123.632812 L 102.539062 137.695312 L 81.445312 137.695312 Z M 81.445312 123.632812 " clip-rule="nonzero"/></clipPath><clipPath id="2fd95bef14"><path d="M 81.445312 123.632812 L 102.445312 123.632812 L 102.445312 137.882812 L 81.445312 137.882812 Z M 81.445312 123.632812 " clip-rule="nonzero"/></clipPath><clipPath id="1b25ab560c"><path d="M 81.445312 141.351562 L 102.539062 141.351562 L 102.539062 149.554688 L 81.445312 149.554688 Z M 81.445312 141.351562 " clip-rule="nonzero"/></clipPath><clipPath id="4e83694ee6"><path d="M 81.445312 141.351562 L 102.445312 141.351562 L 102.445312 149.601562 L 81.445312 149.601562 Z M 81.445312 141.351562 " clip-rule="nonzero"/></clipPath><clipPath id="93b12f136f"><path d="M 132 69 L 263 69 L 263 166 L 132 166 Z M 132 69 " clip-rule="nonzero"/></clipPath><clipPath id="3d2293360f"><path d="M 132.890625 151.53125 L 253.226562 69.035156 L 263.167969 83.53125 L 142.832031 166.027344 Z M 132.890625 151.53125 " clip-rule="nonzero"/></clipPath><clipPath id="20b0b17222"><path d="M 132.890625 151.53125 L 253.226562 69.035156 L 262.785156 82.976562 L 142.449219 165.472656 Z M 132.890625 151.53125 " clip-rule="nonzero"/></clipPath><clipPath id="077668a19c"><path d="M 184 100 L 211 100 L 211 134 L 184 134 Z M 184 100 " clip-rule="nonzero"/></clipPath><clipPath id="a6dacc16e2"><path d="M 179.390625 118.875 L 206.636719 99.933594 L 216.707031 114.421875 L 189.457031 133.359375 Z M 179.390625 118.875 " clip-rule="nonzero"/></clipPath><clipPath id="4963e37a6f"><path d="M 184.90625 115.039062 L 206.425781 100.082031 L 210.769531 118.105469 L 189.25 133.0625 L 184.90625 115.039062 " clip-rule="nonzero"/></clipPath><clipPath id="6b1b660e10"><path d="M 184 100 L 211 100 L 211 134 L 184 134 Z M 184 100 " clip-rule="nonzero"/></clipPath><clipPath id="4e18d6bac7"><path d="M 179.390625 118.875 L 206.488281 100.039062 L 216.332031 114.203125 L 189.234375 133.039062 Z M 179.390625 118.875 " clip-rule="nonzero"/></clipPath><clipPath id="287125e947"><path d="M 179.390625 118.871094 L 206.695312 99.894531 L 216.75 114.355469 L 189.441406 133.335938 Z M 179.390625 118.871094 " clip-rule="nonzero"/></clipPath><clipPath id="e6815587e9"><path d="M 184.921875 115.027344 L 206.484375 100.039062 L 210.800781 118.046875 L 189.238281 133.035156 L 184.921875 115.027344 " clip-rule="nonzero"/></clipPath><clipPath id="d87e4f512d"><path d="M 231 69 L 257 69 L 257 102 L 231 102 Z M 231 69 " clip-rule="nonzero"/></clipPath><clipPath id="69a16128a7"><path d="M 225.550781 87.824219 L 252.796875 68.886719 L 262.867188 83.371094 L 235.621094 102.308594 Z M 225.550781 87.824219 " clip-rule="nonzero"/></clipPath><clipPath id="f1227bab11"><path d="M 231.070312 83.988281 L 252.585938 69.03125 L 256.929688 87.054688 L 235.414062 102.011719 L 231.070312 83.988281 " clip-rule="nonzero"/></clipPath><clipPath id="20cc072817"><path d="M 231 68 L 257 68 L 257 102 L 231 102 Z M 231 68 " clip-rule="nonzero"/></clipPath><clipPath id="9b3bc90aac"><path d="M 225.550781 87.824219 L 252.648438 68.988281 L 262.496094 83.152344 L 235.398438 101.988281 Z M 225.550781 87.824219 " clip-rule="nonzero"/></clipPath><clipPath id="4c1c264ac5"><path d="M 225.554688 87.824219 L 252.859375 68.84375 L 262.910156 83.304688 L 235.605469 102.285156 Z M 225.554688 87.824219 " clip-rule="nonzero"/></clipPath><clipPath id="e8336f74c1"><path d="M 231.082031 83.980469 L 252.648438 68.988281 L 256.960938 87 L 235.398438 101.988281 L 231.082031 83.980469 " clip-rule="nonzero"/></clipPath><clipPath id="1f7e15961c"><path d="M 138 133 L 165 133 L 165 166 L 138 166 Z M 138 133 " clip-rule="nonzero"/></clipPath><clipPath id="245c562963"><path d="M 132.890625 151.855469 L 160.136719 132.914062 L 170.207031 147.402344 L 142.960938 166.339844 Z M 132.890625 151.855469 " clip-rule="nonzero"/></clipPath><clipPath id="45362eed62"><path d="M 138.410156 148.019531 L 159.925781 133.0625 L 164.269531 151.085938 L 142.753906 166.042969 L 138.410156 148.019531 " clip-rule="nonzero"/></clipPath><clipPath id="4775c983e1"><path d="M 138 133 L 165 133 L 165 167 L 138 167 Z M 138 133 " clip-rule="nonzero"/></clipPath><clipPath id="79300048d1"><path d="M 132.890625 151.855469 L 159.988281 133.019531 L 169.835938 147.183594 L 142.738281 166.019531 Z M 132.890625 151.855469 " clip-rule="nonzero"/></clipPath><clipPath id="552694ad9f"><path d="M 132.894531 151.851562 L 160.199219 132.871094 L 170.25 147.335938 L 142.945312 166.3125 Z M 132.894531 151.851562 " clip-rule="nonzero"/></clipPath><clipPath id="5d7b631b19"><path d="M 138.421875 148.007812 L 159.988281 133.019531 L 164.300781 151.027344 L 142.738281 166.015625 L 138.421875 148.007812 " clip-rule="nonzero"/></clipPath><clipPath id="a8370eb8a8"><path d="M 138 183 L 281 183 L 281 244 L 138 244 Z M 138 183 " clip-rule="nonzero"/></clipPath><clipPath id="3c00989fd4"><path d="M 144.507812 183.722656 L 282.105469 220.328125 L 275.324219 245.808594 L 137.726562 209.203125 Z M 144.507812 183.722656 " clip-rule="nonzero"/></clipPath><clipPath id="1a496433e1"><path d="M 144.507812 183.722656 L 280.546875 219.914062 L 274.082031 244.214844 L 138.042969 208.023438 Z M 144.507812 183.722656 " clip-rule="nonzero"/></clipPath><clipPath id="cb7778c867"><path d="M 137 183 L 281 183 L 281 245 L 137 245 Z M 137 183 " clip-rule="nonzero"/></clipPath><clipPath id="d7b870f043"><path d="M 144.507812 183.722656 L 280.765625 219.972656 L 274.210938 244.613281 L 137.949219 208.363281 Z M 144.507812 183.722656 " clip-rule="nonzero"/></clipPath><clipPath id="453357c21e"><path d="M 144.53125 183.726562 L 282.300781 220.378906 L 275.425781 246.21875 L 137.65625 209.566406 Z M 144.53125 183.726562 " clip-rule="nonzero"/></clipPath><clipPath id="58a5da21c9"><path d="M 144.53125 183.726562 L 280.742188 219.964844 L 274.1875 244.609375 L 137.976562 208.371094 Z M 144.53125 183.726562 " clip-rule="nonzero"/></clipPath><clipPath id="10514b5e86"><path d="M 132 213 L 272 213 L 272 261 L 132 261 Z M 132 213 " clip-rule="nonzero"/></clipPath><clipPath id="9026316965"><path d="M 135.609375 213.96875 L 273.207031 250.574219 L 270.042969 262.464844 L 132.445312 225.859375 Z M 135.609375 213.96875 " clip-rule="nonzero"/></clipPath><clipPath id="210e7c7eaf"><path d="M 135.609375 213.96875 L 271.648438 250.160156 L 268.929688 260.378906 L 132.890625 224.1875 Z M 135.609375 213.96875 " clip-rule="nonzero"/></clipPath><clipPath id="8b93db2ff1"><path d="M 132 213 L 272 213 L 272 261 L 132 261 Z M 132 213 " clip-rule="nonzero"/></clipPath><clipPath id="d25d42a8ac"><path d="M 135.609375 213.96875 L 271.867188 250.21875 L 269.167969 260.367188 L 132.910156 224.113281 Z M 135.609375 213.96875 " clip-rule="nonzero"/></clipPath><clipPath id="64a1cffa9f"><path d="M 135.636719 213.976562 L 273.394531 250.625 L 270.253906 262.429688 L 132.496094 225.78125 Z M 135.636719 213.976562 " clip-rule="nonzero"/></clipPath><clipPath id="d7ac380d15"><path d="M 135.636719 213.976562 L 271.839844 250.210938 L 269.140625 260.355469 L 132.9375 224.121094 Z M 135.636719 213.976562 " clip-rule="nonzero"/></clipPath><clipPath id="cc793624e0"><path d="M 128 227 L 268 227 L 268 274 L 128 274 Z M 128 227 " clip-rule="nonzero"/></clipPath><clipPath id="7b21c6e5ce"><path d="M 131.175781 227.546875 L 268.773438 264.152344 L 265.609375 276.042969 L 128.011719 239.4375 Z M 131.175781 227.546875 " clip-rule="nonzero"/></clipPath><clipPath id="8e850e31c8"><path d="M 131.175781 227.546875 L 267.21875 263.738281 L 264.496094 273.960938 L 128.457031 237.765625 Z M 131.175781 227.546875 " clip-rule="nonzero"/></clipPath><clipPath id="9629130a69"><path d="M 128 227 L 268 227 L 268 274 L 128 274 Z M 128 227 " clip-rule="nonzero"/></clipPath><clipPath id="3a98cffbc8"><path d="M 131.175781 227.546875 L 267.4375 263.796875 L 264.738281 273.945312 L 128.476562 237.695312 Z M 131.175781 227.546875 " clip-rule="nonzero"/></clipPath><clipPath id="7c0b464eec"><path d="M 131.207031 227.554688 L 268.964844 264.203125 L 265.824219 276.011719 L 128.066406 239.359375 Z M 131.207031 227.554688 " clip-rule="nonzero"/></clipPath><clipPath id="8eabac10f9"><path d="M 131.207031 227.554688 L 267.40625 263.789062 L 264.707031 273.9375 L 128.507812 237.703125 Z M 131.207031 227.554688 " clip-rule="nonzero"/></clipPath></defs><rect x="-37.5" width="450" fill="#ffffff" y="-37.499999" height="449.999989" fill-opacity="1"/><rect x="-37.5" width="450" fill="#ffffff" y="-37.499999" height="449.999989" fill-opacity="1"/><rect x="-37.5" width="450" fill="#ffffff" y="-37.499999" height="449.999989" fill-opacity="1"/><g fill="#000000" fill-opacity="1"><g transform="translate(147.730958, 336.574584)"><g><path d="M -21.875 10.015625 C -27.40625 7.628906 -29.332031 4.144531 -27.65625 -0.4375 C -26.738281 -2.96875 -25.132812 -4.703125 -22.84375 -5.640625 C -20.550781 -6.585938 -17.664062 -6.429688 -14.1875 -5.171875 C -8.507812 -3.097656 -4.570312 -1.707031 -2.375 -1 C -2.675781 -0.164062 -2.972656 0.421875 -3.265625 0.765625 C -4.085938 0.535156 -4.753906 0.457031 -5.265625 0.53125 C -5.773438 0.613281 -6.226562 0.914062 -6.625 1.4375 C -7.03125 1.957031 -7.4375 2.773438 -7.84375 3.890625 L -14.3125 21.671875 C -14.84375 23.109375 -14.988281 24.15625 -14.75 24.8125 C -14.507812 25.46875 -13.828125 26.035156 -12.703125 26.515625 C -12.703125 26.972656 -12.851562 27.625 -13.15625 28.46875 C -14.28125 27.957031 -15.757812 27.367188 -17.59375 26.703125 L -20.734375 25.609375 C -21.429688 25.378906 -22.457031 25.019531 -23.8125 24.53125 C -26.632812 23.5 -28.707031 22.210938 -30.03125 20.671875 C -31.351562 19.128906 -31.585938 17.191406 -30.734375 14.859375 C -30.054688 12.984375 -28.910156 11.601562 -27.296875 10.71875 C -25.679688 9.84375 -23.875 9.609375 -21.875 10.015625 Z M -25.84375 15.171875 C -26.582031 17.191406 -26.472656 18.878906 -25.515625 20.234375 C -24.554688 21.585938 -23.210938 22.582031 -21.484375 23.21875 C -20.859375 23.445312 -20.242188 23.585938 -19.640625 23.640625 L -15.640625 12.65625 L -16.96875 12.171875 C -21.550781 10.503906 -24.507812 11.503906 -25.84375 15.171875 Z M -14.421875 -3.15625 C -16.503906 -3.90625 -18.25 -3.941406 -19.65625 -3.265625 C -21.0625 -2.585938 -22.113281 -1.285156 -22.8125 0.640625 C -24.382812 4.941406 -22.097656 8.210938 -15.953125 10.453125 L -14.96875 10.8125 L -11.90625 2.40625 C -11.46875 1.207031 -11.25 0.289062 -11.25 -0.34375 C -11.257812 -0.988281 -11.503906 -1.507812 -11.984375 -1.90625 C -12.460938 -2.3125 -13.273438 -2.726562 -14.421875 -3.15625 Z M -14.421875 -3.15625 "/></g></g></g><g fill="#000000" fill-opacity="1"><g transform="translate(120.099472, 325.759981)"><g/></g></g><g fill="#000000" fill-opacity="1"><g transform="translate(110.541104, 320.710369)"><g/></g></g><g fill="#000000" fill-opacity="1"><g transform="translate(101.447169, 316.081996)"><g><path d="M -12.59375 -11.140625 C -10.3125 -9.222656 -8.738281 -6.988281 -7.875 -4.4375 C -7.007812 -1.882812 -6.875 0.734375 -7.46875 3.421875 C -8.070312 6.117188 -9.347656 8.625 -11.296875 10.9375 C -13.273438 13.289062 -15.546875 14.957031 -18.109375 15.9375 C -20.679688 16.925781 -23.289062 17.191406 -25.9375 16.734375 C -28.582031 16.273438 -30.984375 15.132812 -33.140625 13.3125 C -35.367188 11.4375 -36.9375 9.242188 -37.84375 6.734375 C -38.757812 4.234375 -38.941406 1.640625 -38.390625 -1.046875 C -37.847656 -3.734375 -36.578125 -6.265625 -34.578125 -8.640625 C -32.648438 -10.929688 -30.398438 -12.585938 -27.828125 -13.609375 C -25.253906 -14.640625 -22.628906 -14.953125 -19.953125 -14.546875 C -17.273438 -14.148438 -14.820312 -13.015625 -12.59375 -11.140625 Z M -14.75 -10 C -16.226562 -11.238281 -17.878906 -11.898438 -19.703125 -11.984375 C -21.523438 -12.078125 -23.347656 -11.632812 -25.171875 -10.65625 C -26.992188 -9.6875 -28.664062 -8.296875 -30.1875 -6.484375 C -31.945312 -4.390625 -33.171875 -2.15625 -33.859375 0.21875 C -34.554688 2.601562 -34.660156 4.859375 -34.171875 6.984375 C -33.679688 9.117188 -32.617188 10.875 -30.984375 12.25 C -29.585938 13.414062 -28 14.0625 -26.21875 14.1875 C -24.445312 14.320312 -22.648438 13.9375 -20.828125 13.03125 C -19.003906 12.125 -17.300781 10.734375 -15.71875 8.859375 C -14.03125 6.835938 -12.789062 4.65625 -12 2.3125 C -11.207031 -0.03125 -11.019531 -2.289062 -11.4375 -4.46875 C -11.863281 -6.644531 -12.96875 -8.488281 -14.75 -10 Z M -14.75 -10 "/></g></g></g><g fill="#000000" fill-opacity="1"><g transform="translate(75.674828, 293.172764)"><g/></g></g><g fill="#000000" fill-opacity="1"><g transform="translate(68.548086, 285.044389)"><g/></g></g><g fill="#000000" fill-opacity="1"><g transform="translate(61.704885, 277.475102)"><g><path d="M -7.78125 -14.890625 C -6.332031 -12.285156 -5.660156 -9.640625 -5.765625 -6.953125 C -5.878906 -4.265625 -6.691406 -1.769531 -8.203125 0.53125 C -9.722656 2.832031 -11.804688 4.71875 -14.453125 6.1875 C -17.140625 7.675781 -19.859375 8.421875 -22.609375 8.421875 C -25.359375 8.429688 -27.882812 7.75 -30.1875 6.375 C -32.488281 5 -34.328125 3.078125 -35.703125 0.609375 C -37.117188 -1.941406 -37.804688 -4.550781 -37.765625 -7.21875 C -37.722656 -9.882812 -36.96875 -12.367188 -35.5 -14.671875 C -34.03125 -16.984375 -31.9375 -18.894531 -29.21875 -20.40625 C -26.59375 -21.863281 -23.894531 -22.613281 -21.125 -22.65625 C -18.363281 -22.707031 -15.800781 -22.0625 -13.4375 -20.71875 C -11.082031 -19.382812 -9.195312 -17.441406 -7.78125 -14.890625 Z M -10.21875 -14.59375 C -11.144531 -16.28125 -12.441406 -17.492188 -14.109375 -18.234375 C -15.785156 -18.972656 -17.648438 -19.207031 -19.703125 -18.9375 C -21.753906 -18.675781 -23.816406 -17.972656 -25.890625 -16.828125 C -28.273438 -15.503906 -30.21875 -13.851562 -31.71875 -11.875 C -33.21875 -9.90625 -34.117188 -7.835938 -34.421875 -5.671875 C -34.722656 -3.503906 -34.351562 -1.484375 -33.3125 0.390625 C -32.425781 1.984375 -31.175781 3.15625 -29.5625 3.90625 C -27.957031 4.664062 -26.132812 4.941406 -24.09375 4.734375 C -22.0625 4.535156 -19.976562 3.84375 -17.84375 2.65625 C -15.539062 1.375 -13.601562 -0.21875 -12.03125 -2.125 C -10.457031 -4.039062 -9.476562 -6.085938 -9.09375 -8.265625 C -8.707031 -10.453125 -9.082031 -12.5625 -10.21875 -14.59375 Z M -10.21875 -14.59375 "/></g></g></g><g fill="#000000" fill-opacity="1"><g transform="translate(45.805817, 246.876825)"><g/></g></g><g fill="#000000" fill-opacity="1"><g transform="translate(42.049355, 236.740241)"><g/></g></g><g fill="#000000" fill-opacity="1"><g transform="translate(38.465025, 227.133229)"><g><path d="M -9.921875 -22 C -8.910156 -23.050781 -8.160156 -23.894531 -7.671875 -24.53125 C -7.191406 -25.164062 -6.84375 -25.867188 -6.625 -26.640625 C -6.40625 -27.421875 -6.351562 -28.390625 -6.46875 -29.546875 C -5.695312 -29.660156 -5.03125 -29.6875 -4.46875 -29.625 C -4.007812 -26.59375 -3.550781 -24.195312 -3.09375 -22.4375 C -4.914062 -20.914062 -7.203125 -18.6875 -9.953125 -15.75 C -12.703125 -12.820312 -14.835938 -10.226562 -16.359375 -7.96875 L -7.3125 -9.328125 C -5.789062 -9.554688 -4.800781 -9.929688 -4.34375 -10.453125 C -3.882812 -10.972656 -3.71875 -11.835938 -3.84375 -13.046875 C -3.4375 -13.273438 -2.789062 -13.453125 -1.90625 -13.578125 C -1.726562 -11.742188 -1.5 -9.898438 -1.21875 -8.046875 C -0.894531 -5.921875 -0.570312 -4.09375 -0.25 -2.5625 C -1.132812 -2.4375 -1.800781 -2.414062 -2.25 -2.5 C -2.488281 -3.707031 -2.90625 -4.488281 -3.5 -4.84375 C -4.09375 -5.207031 -5.148438 -5.273438 -6.671875 -5.046875 L -25.875 -2.15625 C -27.382812 -1.925781 -28.367188 -1.550781 -28.828125 -1.03125 C -29.296875 -0.507812 -29.472656 0.359375 -29.359375 1.578125 C -29.765625 1.796875 -30.410156 1.972656 -31.296875 2.109375 C -31.453125 0.429688 -31.679688 -1.40625 -31.984375 -3.40625 C -32.265625 -5.257812 -32.585938 -7.09375 -32.953125 -8.90625 C -32.066406 -9.039062 -31.398438 -9.0625 -30.953125 -8.96875 C -30.703125 -7.769531 -30.273438 -6.988281 -29.671875 -6.625 C -29.078125 -6.269531 -28.023438 -6.207031 -26.515625 -6.4375 L -17.671875 -7.765625 L -28 -14.984375 C -29.320312 -15.941406 -30.316406 -16.367188 -30.984375 -16.265625 C -31.648438 -16.160156 -31.921875 -15.609375 -31.796875 -14.609375 C -32.265625 -14.378906 -32.910156 -14.203125 -33.734375 -14.078125 C -33.785156 -15.097656 -33.972656 -16.671875 -34.296875 -18.796875 C -34.585938 -20.703125 -34.867188 -22.257812 -35.140625 -23.46875 C -34.253906 -23.601562 -33.585938 -23.609375 -33.140625 -23.484375 C -32.910156 -22.398438 -32.453125 -21.441406 -31.765625 -20.609375 C -31.085938 -19.785156 -29.898438 -18.789062 -28.203125 -17.625 L -19.21875 -11.390625 C -17.445312 -13.890625 -14.347656 -17.425781 -9.921875 -22 Z M -9.921875 -22 "/></g></g></g><g fill="#000000" fill-opacity="1"><g transform="translate(34.502335, 195.260449)"><g/></g></g><g fill="#000000" fill-opacity="1"><g transform="translate(34.44767, 184.450374)"><g/></g></g><g fill="#000000" fill-opacity="1"><g transform="translate(35.162443, 173.663811)"><g/></g></g><g fill="#000000" fill-opacity="1"><g transform="translate(36.642985, 162.955444)"><g/></g></g><g fill="#000000" fill-opacity="1"><g transform="translate(38.881812, 152.379592)"><g/></g></g><g fill="#000000" fill-opacity="1"><g transform="translate(41.04641, 142.334253)"><g><path d="M 6.875 -14.734375 C 5.75 -12.140625 4.113281 -10.097656 1.96875 -8.609375 C -0.175781 -7.117188 -2.617188 -6.289062 -5.359375 -6.125 C -8.109375 -5.957031 -10.929688 -6.503906 -13.828125 -7.765625 C -16.921875 -9.109375 -19.269531 -10.90625 -20.875 -13.15625 C -22.476562 -15.414062 -23.359375 -17.859375 -23.515625 -20.484375 C -23.671875 -23.117188 -23.207031 -25.675781 -22.125 -28.15625 C -21.382812 -29.863281 -20.519531 -31.367188 -19.53125 -32.671875 C -18.550781 -33.984375 -17.328125 -35.28125 -15.859375 -36.5625 C -14.535156 -35.601562 -12.425781 -34.5 -9.53125 -33.25 C -9.539062 -32.519531 -9.734375 -31.71875 -10.109375 -30.84375 C -12.984375 -31.957031 -15.175781 -32.222656 -16.6875 -31.640625 C -18.195312 -31.054688 -19.390625 -29.753906 -20.265625 -27.734375 C -21.253906 -25.460938 -21.535156 -23.347656 -21.109375 -21.390625 C -20.691406 -19.429688 -19.765625 -17.71875 -18.328125 -16.25 C -16.890625 -14.789062 -15.132812 -13.609375 -13.0625 -12.703125 C -10.53125 -11.597656 -8.054688 -11.03125 -5.640625 -11 C -3.222656 -10.976562 -1.070312 -11.523438 0.8125 -12.640625 C 2.695312 -13.765625 4.113281 -15.421875 5.0625 -17.609375 C 5.632812 -18.941406 6.003906 -20.410156 6.171875 -22.015625 C 6.335938 -23.617188 6.296875 -25.1875 6.046875 -26.71875 C 6.265625 -26.820312 6.539062 -26.894531 6.875 -26.9375 C 7.207031 -26.976562 7.476562 -26.972656 7.6875 -26.921875 C 8.269531 -24.628906 8.503906 -22.546875 8.390625 -20.671875 C 8.285156 -18.796875 7.78125 -16.816406 6.875 -14.734375 Z M 6.875 -14.734375 "/></g></g></g><g fill="#000000" fill-opacity="1"><g transform="translate(54.121765, 114.220548)"><g/></g></g><g fill="#000000" fill-opacity="1"><g transform="translate(59.784396, 105.012095)"><g/></g></g><g fill="#000000" fill-opacity="1"><g transform="translate(65.842774, 96.30206)"><g><path d="M -15.25 -21.015625 C -16.40625 -22.003906 -17.332031 -22.503906 -18.03125 -22.515625 C -18.726562 -22.535156 -19.503906 -22.097656 -20.359375 -21.203125 C -20.773438 -21.367188 -21.320312 -21.742188 -22 -22.328125 C -20.832031 -23.546875 -19.585938 -24.921875 -18.265625 -26.453125 C -17.046875 -27.867188 -15.867188 -29.3125 -14.734375 -30.78125 C -14.054688 -30.195312 -13.609375 -29.703125 -13.390625 -29.296875 C -14.140625 -28.335938 -14.457031 -27.507812 -14.34375 -26.8125 C -14.226562 -26.125 -13.59375 -25.285156 -12.4375 -24.296875 L 2.28125 -11.625 C 3.445312 -10.625 4.378906 -10.117188 5.078125 -10.109375 C 5.773438 -10.097656 6.550781 -10.535156 7.40625 -11.421875 C 7.832031 -11.265625 8.382812 -10.894531 9.0625 -10.3125 C 7.78125 -8.96875 6.53125 -7.585938 5.3125 -6.171875 C 3.90625 -4.546875 2.734375 -3.109375 1.796875 -1.859375 C 1.117188 -2.441406 0.664062 -2.929688 0.4375 -3.328125 C 1.1875 -4.296875 1.503906 -5.125 1.390625 -5.8125 C 1.273438 -6.5 0.632812 -7.34375 -0.53125 -8.34375 Z M -15.25 -21.015625 "/></g></g></g><g fill="#000000" fill-opacity="1"><g transform="translate(77.546397, 83.051877)"><g/></g></g><g fill="#000000" fill-opacity="1"><g transform="translate(85.367677, 75.589405)"><g/></g></g><g fill="#000000" fill-opacity="1"><g transform="translate(92.615883, 68.41813)"><g><path d="M 7.625 -41.078125 C 9.039062 -41.941406 10.253906 -42.738281 11.265625 -43.46875 C 11.660156 -42.800781 11.941406 -42.195312 12.109375 -41.65625 C 11.503906 -41.289062 11.140625 -40.832031 11.015625 -40.28125 C 10.898438 -39.738281 11.015625 -39.03125 11.359375 -38.15625 C 11.703125 -37.28125 12.316406 -36.117188 13.203125 -34.671875 L 25.03125 -15.265625 C 24.707031 -14.847656 24.1875 -14.425781 23.46875 -14 L -5.65625 -25.265625 L 2.625 -11.671875 C 3.550781 -10.148438 4.335938 -9.03125 4.984375 -8.3125 C 5.640625 -7.601562 6.273438 -7.191406 6.890625 -7.078125 C 7.503906 -6.972656 8.160156 -7.132812 8.859375 -7.5625 C 9.222656 -7.25 9.632812 -6.722656 10.09375 -5.984375 C 8.863281 -5.347656 7.539062 -4.597656 6.125 -3.734375 C 4.5 -2.742188 3.21875 -1.90625 2.28125 -1.21875 C 1.820312 -1.957031 1.546875 -2.566406 1.453125 -3.046875 C 2.148438 -3.472656 2.585938 -3.976562 2.765625 -4.5625 C 2.941406 -5.15625 2.859375 -5.90625 2.515625 -6.8125 C 2.179688 -7.71875 1.550781 -8.929688 0.625 -10.453125 L -9.265625 -26.6875 L -9.546875 -26.78125 C -10.179688 -27.007812 -10.707031 -27.097656 -11.125 -27.046875 C -11.550781 -27.003906 -12.117188 -26.804688 -12.828125 -26.453125 C -13.253906 -26.835938 -13.664062 -27.363281 -14.0625 -28.03125 C -13.226562 -28.425781 -12.234375 -28.972656 -11.078125 -29.671875 C -10.023438 -30.316406 -9.175781 -30.894531 -8.53125 -31.40625 L 19.125 -20.453125 L 11.203125 -33.453125 C 10.304688 -34.921875 9.535156 -35.992188 8.890625 -36.671875 C 8.253906 -37.359375 7.632812 -37.753906 7.03125 -37.859375 C 6.4375 -37.960938 5.785156 -37.800781 5.078125 -37.375 C 4.492188 -38.050781 4.085938 -38.578125 3.859375 -38.953125 C 5.023438 -39.554688 6.28125 -40.265625 7.625 -41.078125 Z M 7.625 -41.078125 "/></g></g></g><g fill="#000000" fill-opacity="1"><g transform="translate(122.976689, 51.062406)"><g/></g></g><g fill="#000000" fill-opacity="1"><g transform="translate(132.959243, 46.913973)"><g/></g></g><g fill="#000000" fill-opacity="1"><g transform="translate(142.552948, 43.099445)"><g><path d="M 21.71875 -12.421875 C 22.632812 -12.328125 23.363281 -12.097656 23.90625 -11.734375 C 23.695312 -9.847656 23.6875 -7.515625 23.875 -4.734375 C 21.519531 -4.316406 18.300781 -3.695312 14.21875 -2.875 C 8.675781 -1.757812 4.789062 -0.925781 2.5625 -0.375 C 2.382812 -1.25 2.328125 -1.914062 2.390625 -2.375 C 3.210938 -2.601562 3.816406 -2.878906 4.203125 -3.203125 C 4.597656 -3.535156 4.820312 -4.019531 4.875 -4.65625 C 4.9375 -5.289062 4.847656 -6.207031 4.609375 -7.40625 L 0.84375 -25.953125 C 0.539062 -27.453125 0.117188 -28.421875 -0.421875 -28.859375 C -0.960938 -29.296875 -1.835938 -29.425781 -3.046875 -29.25 C -3.273438 -29.632812 -3.476562 -30.265625 -3.65625 -31.140625 C -1.875 -31.398438 0.65625 -31.863281 3.9375 -32.53125 C 9.40625 -33.632812 13.617188 -34.535156 16.578125 -35.234375 C 17.554688 -31.992188 18.351562 -29.679688 18.96875 -28.296875 C 18.59375 -27.835938 17.957031 -27.519531 17.0625 -27.34375 C 16.5625 -29 15.671875 -30.25 14.390625 -31.09375 C 13.109375 -31.945312 11.144531 -32.109375 8.5 -31.578125 L 4.3125 -30.734375 L 6.8125 -18.375 L 9.640625 -18.953125 C 11.546875 -19.328125 12.796875 -19.832031 13.390625 -20.46875 C 13.992188 -21.113281 14.164062 -22.160156 13.90625 -23.609375 C 14.582031 -23.960938 15.28125 -24.210938 16 -24.359375 C 16.15625 -23.328125 16.460938 -21.679688 16.921875 -19.421875 C 17.421875 -16.960938 17.800781 -15.226562 18.0625 -14.21875 C 17.257812 -14.0625 16.554688 -14 15.953125 -14.03125 C 15.503906 -15.5625 14.875 -16.53125 14.0625 -16.9375 C 13.25 -17.351562 11.90625 -17.375 10.03125 -17 L 7.203125 -16.421875 L 8.859375 -8.265625 C 9.085938 -7.128906 9.363281 -6.285156 9.6875 -5.734375 C 10.007812 -5.191406 10.488281 -4.859375 11.125 -4.734375 C 11.769531 -4.617188 12.664062 -4.675781 13.8125 -4.90625 L 14.0625 -4.953125 C 16.144531 -5.378906 17.695312 -5.914062 18.71875 -6.5625 C 19.738281 -7.207031 20.4375 -7.957031 20.8125 -8.8125 C 21.195312 -9.664062 21.5 -10.867188 21.71875 -12.421875 Z M 21.71875 -12.421875 "/></g></g></g><g fill="#000000" fill-opacity="1"><g transform="translate(170.797231, 38.058342)"><g/></g></g><g fill="#000000" fill-opacity="1"><g transform="translate(181.583957, 37.345918)"><g/></g></g><g fill="#000000" fill-opacity="1"><g transform="translate(192.394035, 37.402912)"><g/></g></g><g fill="#000000" fill-opacity="1"><g transform="translate(203.172646, 38.229034)"><g/></g></g><g fill="#000000" fill-opacity="1"><g transform="translate(213.865143, 39.820104)"><g/></g></g><g fill="#000000" fill-opacity="1"><g transform="translate(224.038656, 41.444325)"><g><path d="M 21.828125 -10.09375 C 27.367188 -7.738281 29.3125 -4.269531 27.65625 0.3125 C 26.75 2.851562 25.148438 4.597656 22.859375 5.546875 C 20.578125 6.503906 17.691406 6.359375 14.203125 5.109375 C 8.515625 3.066406 4.570312 1.695312 2.375 1 C 2.675781 0.164062 2.972656 -0.425781 3.265625 -0.78125 C 4.097656 -0.550781 4.765625 -0.472656 5.265625 -0.546875 C 5.765625 -0.628906 6.210938 -0.929688 6.609375 -1.453125 C 7.015625 -1.984375 7.414062 -2.804688 7.8125 -3.921875 L 14.21875 -21.734375 C 14.738281 -23.171875 14.878906 -24.21875 14.640625 -24.875 C 14.398438 -25.539062 13.71875 -26.109375 12.59375 -26.578125 C 12.59375 -27.023438 12.742188 -27.671875 13.046875 -28.515625 C 14.171875 -28.015625 15.65625 -27.4375 17.5 -26.78125 L 20.640625 -25.6875 C 21.335938 -25.46875 22.363281 -25.113281 23.71875 -24.625 C 26.550781 -23.601562 28.628906 -22.328125 29.953125 -20.796875 C 31.273438 -19.265625 31.515625 -17.332031 30.671875 -15 C 29.992188 -13.113281 28.851562 -11.726562 27.25 -10.84375 C 25.644531 -9.957031 23.835938 -9.707031 21.828125 -10.09375 Z M 25.78125 -15.28125 C 26.507812 -17.3125 26.390625 -19 25.421875 -20.34375 C 24.460938 -21.695312 23.117188 -22.6875 21.390625 -23.3125 C 20.765625 -23.539062 20.148438 -23.679688 19.546875 -23.734375 L 15.59375 -12.734375 L 16.9375 -12.25 C 21.519531 -10.601562 24.46875 -11.613281 25.78125 -15.28125 Z M 14.453125 3.078125 C 16.523438 3.828125 18.265625 3.859375 19.671875 3.171875 C 21.078125 2.484375 22.125 1.175781 22.8125 -0.75 C 24.363281 -5.050781 22.0625 -8.304688 15.90625 -10.515625 L 14.921875 -10.875 L 11.890625 -2.46875 C 11.460938 -1.257812 11.253906 -0.335938 11.265625 0.296875 C 11.273438 0.941406 11.519531 1.460938 12 1.859375 C 12.476562 2.253906 13.296875 2.660156 14.453125 3.078125 Z M 14.453125 3.078125 "/></g></g></g><g fill="#000000" fill-opacity="1"><g transform="translate(251.712981, 52.144581)"><g/></g></g><g fill="#000000" fill-opacity="1"><g transform="translate(261.292139, 57.154623)"><g/></g></g><g fill="#000000" fill-opacity="1"><g transform="translate(270.406237, 61.745345)"><g><path d="M 12.640625 11.078125 C 10.347656 9.171875 8.765625 6.945312 7.890625 4.40625 C 7.015625 1.863281 6.867188 -0.75 7.453125 -3.4375 C 8.046875 -6.132812 9.3125 -8.648438 11.25 -10.984375 C 13.21875 -13.347656 15.484375 -15.023438 18.046875 -16.015625 C 20.609375 -17.015625 23.210938 -17.289062 25.859375 -16.84375 C 28.503906 -16.394531 30.910156 -15.269531 33.078125 -13.46875 C 35.316406 -11.601562 36.894531 -9.414062 37.8125 -6.90625 C 38.738281 -4.394531 38.9375 -1.800781 38.40625 0.875 C 37.875 3.5625 36.613281 6.097656 34.625 8.484375 C 32.695312 10.785156 30.445312 12.457031 27.875 13.5 C 25.3125 14.550781 22.691406 14.875 20.015625 14.46875 C 17.335938 14.070312 14.878906 12.941406 12.640625 11.078125 Z M 14.796875 9.921875 C 16.273438 11.148438 17.925781 11.804688 19.75 11.890625 C 21.570312 11.984375 23.390625 11.539062 25.203125 10.5625 C 27.023438 9.582031 28.691406 8.179688 30.203125 6.359375 C 31.953125 4.265625 33.171875 2.023438 33.859375 -0.359375 C 34.554688 -2.742188 34.648438 -5 34.140625 -7.125 C 33.640625 -9.257812 32.566406 -11.015625 30.921875 -12.390625 C 29.535156 -13.546875 27.953125 -14.1875 26.171875 -14.3125 C 24.398438 -14.4375 22.597656 -14.035156 20.765625 -13.109375 C 18.941406 -12.191406 17.25 -10.789062 15.6875 -8.90625 C 14 -6.882812 12.765625 -4.703125 11.984375 -2.359375 C 11.210938 -0.015625 11.039062 2.242188 11.46875 4.421875 C 11.894531 6.597656 13.003906 8.429688 14.796875 9.921875 Z M 14.796875 9.921875 "/></g></g></g><g fill="#000000" fill-opacity="1"><g transform="translate(296.272018, 84.547778)"><g/></g></g><g fill="#000000" fill-opacity="1"><g transform="translate(303.432312, 92.646614)"><g/></g></g><g fill="#000000" fill-opacity="1"><g transform="translate(310.30783, 100.187565)"><g><path d="M 7.84375 14.859375 C 6.382812 12.253906 5.703125 9.609375 5.796875 6.921875 C 5.890625 4.242188 6.6875 1.753906 8.1875 -0.546875 C 9.695312 -2.859375 11.773438 -4.757812 14.421875 -6.25 C 17.097656 -7.75 19.8125 -8.503906 22.5625 -8.515625 C 25.320312 -8.535156 27.851562 -7.863281 30.15625 -6.5 C 32.46875 -5.144531 34.316406 -3.234375 35.703125 -0.765625 C 37.128906 1.773438 37.828125 4.378906 37.796875 7.046875 C 37.765625 9.722656 37.019531 12.21875 35.5625 14.53125 C 34.101562 16.851562 32.019531 18.769531 29.3125 20.28125 C 26.695312 21.75 24.003906 22.507812 21.234375 22.5625 C 18.460938 22.625 15.894531 21.988281 13.53125 20.65625 C 11.164062 19.332031 9.269531 17.398438 7.84375 14.859375 Z M 10.28125 14.546875 C 11.21875 16.222656 12.523438 17.429688 14.203125 18.171875 C 15.878906 18.910156 17.738281 19.144531 19.78125 18.875 C 21.832031 18.601562 23.890625 17.890625 25.953125 16.734375 C 28.328125 15.390625 30.265625 13.726562 31.765625 11.75 C 33.265625 9.769531 34.15625 7.691406 34.4375 5.515625 C 34.726562 3.347656 34.351562 1.332031 33.3125 -0.53125 C 32.414062 -2.113281 31.160156 -3.28125 29.546875 -4.03125 C 27.941406 -4.78125 26.125 -5.050781 24.09375 -4.84375 C 22.0625 -4.632812 19.976562 -3.929688 17.84375 -2.734375 C 15.539062 -1.441406 13.609375 0.160156 12.046875 2.078125 C 10.484375 3.992188 9.507812 6.039062 9.125 8.21875 C 8.75 10.40625 9.132812 12.515625 10.28125 14.546875 Z M 10.28125 14.546875 "/></g></g></g><g fill="#000000" fill-opacity="1"><g transform="translate(326.332207, 130.719824)"><g/></g></g><g fill="#000000" fill-opacity="1"><g transform="translate(330.130558, 140.840777)"><g/></g></g><g fill="#000000" fill-opacity="1"><g transform="translate(333.749418, 150.432895)"><g><path d="M 10.015625 21.953125 C 8.992188 23.015625 8.242188 23.863281 7.765625 24.5 C 7.296875 25.132812 6.953125 25.84375 6.734375 26.625 C 6.515625 27.40625 6.46875 28.375 6.59375 29.53125 C 5.820312 29.644531 5.15625 29.664062 4.59375 29.59375 C 4.125 26.570312 3.65625 24.179688 3.1875 22.421875 C 5.007812 20.890625 7.289062 18.65625 10.03125 15.71875 C 12.769531 12.78125 14.894531 10.171875 16.40625 7.890625 L 7.359375 9.296875 C 5.835938 9.523438 4.847656 9.898438 4.390625 10.421875 C 3.929688 10.941406 3.765625 11.816406 3.890625 13.046875 C 3.484375 13.265625 2.835938 13.441406 1.953125 13.578125 C 1.765625 11.742188 1.53125 9.898438 1.25 8.046875 C 0.914062 5.921875 0.582031 4.09375 0.25 2.5625 C 1.132812 2.425781 1.804688 2.40625 2.265625 2.5 C 2.503906 3.6875 2.921875 4.457031 3.515625 4.8125 C 4.117188 5.175781 5.179688 5.242188 6.703125 5.015625 L 25.890625 2.03125 C 27.398438 1.800781 28.382812 1.421875 28.84375 0.890625 C 29.300781 0.367188 29.472656 -0.492188 29.359375 -1.703125 C 29.742188 -1.921875 30.378906 -2.097656 31.265625 -2.234375 C 31.429688 -0.554688 31.671875 1.28125 31.984375 3.28125 C 32.265625 5.132812 32.59375 6.96875 32.96875 8.78125 C 32.082031 8.914062 31.421875 8.9375 30.984375 8.84375 C 30.734375 7.632812 30.304688 6.851562 29.703125 6.5 C 29.109375 6.144531 28.054688 6.082031 26.546875 6.3125 L 17.71875 7.6875 L 28.0625 14.890625 C 29.375 15.828125 30.367188 16.242188 31.046875 16.140625 C 31.710938 16.035156 31.984375 15.476562 31.859375 14.46875 C 32.316406 14.25 32.957031 14.078125 33.78125 13.953125 C 33.84375 14.972656 34.035156 16.539062 34.359375 18.65625 C 34.660156 20.5625 34.953125 22.117188 35.234375 23.328125 C 34.347656 23.460938 33.679688 23.46875 33.234375 23.34375 C 33.003906 22.257812 32.546875 21.304688 31.859375 20.484375 C 31.171875 19.660156 29.976562 18.664062 28.28125 17.5 L 19.25 11.296875 C 17.5 13.816406 14.421875 17.367188 10.015625 21.953125 Z M 10.015625 21.953125 "/></g></g></g><g fill="#000000" fill-opacity="1"><g transform="translate(337.849072, 182.288995)"><g/></g></g><g fill="#000000" fill-opacity="1"><g transform="translate(337.948429, 193.098757)"><g/></g></g><g fill="#000000" fill-opacity="1"><g transform="translate(337.278284, 203.888207)"><g/></g></g><g fill="#000000" fill-opacity="1"><g transform="translate(335.842049, 214.602568)"><g/></g></g><g fill="#000000" fill-opacity="1"><g transform="translate(333.646958, 225.187601)"><g/></g></g><g fill="#000000" fill-opacity="1"><g transform="translate(331.51758, 235.241843)"><g><path d="M -6.8125 14.75 C -5.695312 12.15625 -4.066406 10.109375 -1.921875 8.609375 C 0.210938 7.109375 2.648438 6.269531 5.390625 6.09375 C 8.128906 5.925781 10.953125 6.46875 13.859375 7.71875 C 16.953125 9.050781 19.304688 10.835938 20.921875 13.078125 C 22.535156 15.316406 23.425781 17.753906 23.59375 20.390625 C 23.757812 23.023438 23.3125 25.582031 22.25 28.0625 C 21.507812 29.769531 20.648438 31.28125 19.671875 32.59375 C 18.691406 33.914062 17.472656 35.207031 16.015625 36.46875 C 14.679688 35.539062 12.5625 34.453125 9.65625 33.203125 C 9.675781 32.472656 9.875 31.675781 10.25 30.8125 C 13.125 31.90625 15.3125 32.15625 16.8125 31.5625 C 18.320312 30.96875 19.507812 29.660156 20.375 27.640625 C 21.351562 25.359375 21.628906 23.238281 21.203125 21.28125 C 20.773438 19.332031 19.835938 17.628906 18.390625 16.171875 C 16.953125 14.710938 15.1875 13.535156 13.09375 12.640625 C 10.5625 11.546875 8.085938 10.988281 5.671875 10.96875 C 3.265625 10.957031 1.125 11.515625 -0.75 12.640625 C -2.625 13.773438 -4.03125 15.4375 -4.96875 17.625 C -5.539062 18.957031 -5.90625 20.425781 -6.0625 22.03125 C -6.226562 23.632812 -6.191406 25.207031 -5.953125 26.75 C -6.148438 26.84375 -6.421875 26.910156 -6.765625 26.953125 C -7.109375 27.003906 -7.378906 27 -7.578125 26.9375 C -8.171875 24.644531 -8.414062 22.5625 -8.3125 20.6875 C -8.207031 18.820312 -7.707031 16.84375 -6.8125 14.75 Z M -6.8125 14.75 "/></g></g></g><g fill="#000000" fill-opacity="1"><g transform="translate(318.564967, 263.409358)"><g/></g></g><g fill="#000000" fill-opacity="1"><g transform="translate(312.940454, 272.641145)"><g/></g></g><g fill="#000000" fill-opacity="1"><g transform="translate(306.914679, 281.376154)"><g><path d="M 15.328125 20.9375 C 16.492188 21.9375 17.425781 22.441406 18.125 22.453125 C 18.820312 22.460938 19.59375 22.023438 20.4375 21.140625 C 20.863281 21.296875 21.421875 21.664062 22.109375 22.25 C 20.941406 23.46875 19.703125 24.84375 18.390625 26.375 C 17.171875 27.800781 16 29.25 14.875 30.71875 C 14.1875 30.132812 13.734375 29.648438 13.515625 29.265625 C 14.253906 28.285156 14.566406 27.453125 14.453125 26.765625 C 14.335938 26.078125 13.695312 25.234375 12.53125 24.234375 L -2.234375 11.640625 C -3.398438 10.640625 -4.332031 10.132812 -5.03125 10.125 C -5.738281 10.113281 -6.507812 10.5625 -7.34375 11.46875 C -7.769531 11.300781 -8.328125 10.925781 -9.015625 10.34375 C -7.742188 9 -6.5 7.613281 -5.28125 6.1875 C -3.882812 4.5625 -2.71875 3.125 -1.78125 1.875 C -1.09375 2.457031 -0.640625 2.945312 -0.421875 3.34375 C -1.171875 4.300781 -1.484375 5.125 -1.359375 5.8125 C -1.242188 6.5 -0.601562 7.34375 0.5625 8.34375 Z M 15.328125 20.9375 "/></g></g></g><g fill="#000000" fill-opacity="1"><g transform="translate(295.269416, 294.67462)"><g/></g></g><g fill="#000000" fill-opacity="1"><g transform="translate(288.581386, 302.371254)"><g><path d="M -4.5 41.53125 C -5.84375 42.5 -6.992188 43.382812 -7.953125 44.1875 C -8.398438 43.5625 -8.726562 42.984375 -8.9375 42.453125 C -8.363281 42.035156 -8.035156 41.550781 -7.953125 41 C -7.878906 40.457031 -8.046875 39.753906 -8.453125 38.890625 C -8.867188 38.035156 -9.566406 36.925781 -10.546875 35.5625 L -23.8125 17.09375 C -23.519531 16.65625 -23.039062 16.191406 -22.375 15.703125 L 7.546875 24.78125 L -1.75 11.859375 C -2.78125 10.410156 -3.644531 9.347656 -4.34375 8.671875 C -5.050781 8.003906 -5.710938 7.640625 -6.328125 7.578125 C -6.953125 7.515625 -7.597656 7.722656 -8.265625 8.203125 C -8.660156 7.921875 -9.109375 7.429688 -9.609375 6.734375 C -8.429688 6.003906 -7.171875 5.15625 -5.828125 4.1875 C -4.285156 3.082031 -3.066406 2.148438 -2.171875 1.390625 C -1.671875 2.085938 -1.347656 2.671875 -1.203125 3.140625 C -1.867188 3.617188 -2.269531 4.160156 -2.40625 4.765625 C -2.550781 5.367188 -2.414062 6.109375 -2 6.984375 C -1.59375 7.867188 -0.875 9.035156 0.15625 10.484375 L 11.25 25.90625 L 11.546875 25.984375 C 12.191406 26.171875 12.722656 26.222656 13.140625 26.140625 C 13.554688 26.054688 14.109375 25.8125 14.796875 25.40625 C 15.242188 25.757812 15.691406 26.25 16.140625 26.875 C 15.347656 27.34375 14.398438 27.96875 13.296875 28.75 C 12.296875 29.46875 11.488281 30.101562 10.875 30.65625 L -17.53125 21.828125 L -8.640625 34.203125 C -7.640625 35.597656 -6.796875 36.613281 -6.109375 37.25 C -5.421875 37.882812 -4.769531 38.226562 -4.15625 38.28125 C -3.550781 38.34375 -2.914062 38.132812 -2.25 37.65625 C -1.613281 38.28125 -1.164062 38.769531 -0.90625 39.125 C -2.019531 39.8125 -3.21875 40.613281 -4.5 41.53125 Z M -4.5 41.53125 "/></g></g></g><g fill="#000000" fill-opacity="1"><g transform="translate(259.613732, 321.963478)"><g/></g></g><g fill="#000000" fill-opacity="1"><g transform="translate(250.684437, 327.137995)"><g><path d="M -19.671875 15.46875 C -20.597656 15.507812 -21.351562 15.382812 -21.9375 15.09375 C -22 13.195312 -22.332031 10.890625 -22.9375 8.171875 C -20.65625 7.421875 -17.554688 6.335938 -13.640625 4.921875 C -8.328125 3.003906 -4.601562 1.613281 -2.46875 0.75 C -2.164062 1.582031 -2.015625 2.226562 -2.015625 2.6875 C -2.796875 3.039062 -3.351562 3.40625 -3.6875 3.78125 C -4.03125 4.164062 -4.179688 4.675781 -4.140625 5.3125 C -4.109375 5.957031 -3.882812 6.851562 -3.46875 8 L 2.953125 25.796875 C 3.460938 27.234375 4.019531 28.128906 4.625 28.484375 C 5.226562 28.835938 6.113281 28.835938 7.28125 28.484375 C 7.570312 28.828125 7.875 29.421875 8.1875 30.265625 C 6.4375 30.796875 3.988281 31.628906 0.84375 32.765625 C -4.40625 34.660156 -8.4375 36.160156 -11.25 37.265625 C -12.6875 34.210938 -13.816406 32.046875 -14.640625 30.765625 C -14.328125 30.265625 -13.738281 29.859375 -12.875 29.546875 C -12.144531 31.109375 -11.082031 32.21875 -9.6875 32.875 C -8.300781 33.53125 -6.34375 33.398438 -3.8125 32.484375 L 0.21875 31.03125 L -4.046875 19.171875 L -6.765625 20.15625 C -8.585938 20.8125 -9.75 21.5 -10.25 22.21875 C -10.757812 22.9375 -10.773438 24 -10.296875 25.40625 C -10.921875 25.84375 -11.578125 26.179688 -12.265625 26.421875 C -12.566406 25.429688 -13.109375 23.851562 -13.890625 21.6875 C -14.742188 19.332031 -15.375 17.671875 -15.78125 16.703125 C -15.007812 16.429688 -14.320312 16.265625 -13.71875 16.203125 C -13.0625 17.660156 -12.296875 18.53125 -11.421875 18.8125 C -10.554688 19.101562 -9.226562 18.925781 -7.4375 18.28125 L -4.71875 17.296875 L -7.546875 9.46875 C -7.941406 8.375 -8.335938 7.582031 -8.734375 7.09375 C -9.140625 6.601562 -9.664062 6.34375 -10.3125 6.3125 C -10.96875 6.289062 -11.84375 6.476562 -12.9375 6.875 L -13.1875 6.96875 C -15.1875 7.6875 -16.644531 8.4375 -17.5625 9.21875 C -18.476562 10 -19.0625 10.84375 -19.3125 11.75 C -19.5625 12.664062 -19.679688 13.90625 -19.671875 15.46875 Z M -19.671875 15.46875 "/></g></g></g><g clip-path="url(#1677958fe2)"><g clip-path="url(#2e634b9c37)"><g clip-path="url(#ded5543ac4)"><path fill="#ffffff" d="M 141.960938 165.472656 L 289.867188 204.359375 L 267.515625 289.363281 L 119.613281 250.476562 Z M 141.960938 165.472656 " fill-opacity="1" fill-rule="nonzero"/></g></g></g><g clip-path="url(#fc4d8c048f)"><g clip-path="url(#80d199b2e1)"><g clip-path="url(#b76ef827ac)"><g clip-path="url(#cb23d737d9)"><path stroke-linecap="butt" transform="matrix(0.725682, 0.190796, -0.191469, 0.728241, 141.968448, 165.475273)" fill="none" stroke-linejoin="miter" d="M 0.000826225 0.00155405 L 203.891963 -0.00292761 L 203.892508 117.531833 L 0.0000474499 117.531298 L 0.000826225 0.00155405 " stroke="#000000" stroke-width="26" stroke-opacity="1" stroke-miterlimit="4"/></g></g></g></g><g fill="#000000" fill-opacity="1"><g transform="translate(51.562501, 274.301683)"><g><path d="M 8.671875 -4.546875 L 28.609375 -7.796875 L 28.609375 -165.546875 L 8.671875 -168.578125 L 8.671875 -173.34375 L 74.75 -173.34375 C 90.351562 -173.34375 102.773438 -171.898438 112.015625 -169.015625 C 121.265625 -166.128906 127.984375 -161.757812 132.171875 -155.90625 C 136.367188 -150.050781 138.46875 -142.359375 138.46875 -132.828125 C 138.46875 -112.023438 125.320312 -98.734375 99.03125 -92.953125 L 99.03125 -91.875 C 115.0625 -89.707031 127.519531 -84.9375 136.40625 -77.5625 C 145.289062 -70.195312 149.734375 -59.941406 149.734375 -46.796875 C 149.734375 -30.910156 143.914062 -19.140625 132.28125 -11.484375 C 120.65625 -3.828125 104.945312 0 85.15625 0 L 8.671875 0 Z M 76.484375 -93.609375 C 88.046875 -93.609375 96.929688 -96.859375 103.140625 -103.359375 C 109.347656 -109.859375 112.453125 -119.101562 112.453125 -131.09375 L 112.453125 -132.390625 C 112.453125 -156.085938 99.882812 -167.9375 74.75 -167.9375 L 52.4375 -167.9375 L 52.4375 -93.609375 Z M 85.15625 -5.203125 C 97.4375 -5.203125 106.96875 -8.773438 113.75 -15.921875 C 120.539062 -23.078125 123.9375 -33.300781 123.9375 -46.59375 L 123.9375 -48.96875 C 123.9375 -62.113281 120.578125 -71.9375 113.859375 -78.4375 C 107.148438 -84.9375 97.582031 -88.1875 85.15625 -88.1875 L 52.4375 -88.1875 L 52.4375 -5.203125 Z M 85.15625 -5.203125 "/></g></g></g><g clip-path="url(#314acccb3c)"><path fill="#ee6055" d="M 81.445312 101.367188 L 102.539062 101.367188 L 102.539062 275.390625 L 81.445312 275.390625 Z M 81.445312 101.367188 " fill-opacity="1" fill-rule="nonzero"/></g><g clip-path="url(#09c744b984)"><path stroke-linecap="butt" transform="matrix(0.746667, 0, 0, 0.749189, 81.445312, 101.367181)" fill="none" stroke-linejoin="miter" d="M 0.000000734253 0.0000092853 L 28.125 0.0000092853 L 28.125 231.250026 L 0.000000734253 231.250026 L 0.000000734253 0.0000092853 " stroke="#000000" stroke-width="8" stroke-opacity="1" stroke-miterlimit="4"/></g><g clip-path="url(#26a5841cc9)"><path fill="#003249" d="M 81.445312 123.632812 L 102.539062 123.632812 L 102.539062 137.695312 L 81.445312 137.695312 Z M 81.445312 123.632812 " fill-opacity="1" fill-rule="nonzero"/></g><g clip-path="url(#2fd95bef14)"><path stroke-linecap="butt" transform="matrix(0.746667, 0, 0, 0.76, 81.445312, 123.632805)" fill="none" stroke-linejoin="miter" d="M 0.000000734253 0.0000102876 L 28.125 0.0000102876 L 28.125 18.750011 L 0.000000734253 18.750011 L 0.000000734253 0.0000102876 " stroke="#000000" stroke-width="8" stroke-opacity="1" stroke-miterlimit="4"/></g><g clip-path="url(#1b25ab560c)"><path fill="#128ed8" d="M 81.445312 141.351562 L 102.539062 141.351562 L 102.539062 150.140625 L 81.445312 150.140625 Z M 81.445312 141.351562 " fill-opacity="1" fill-rule="nonzero"/></g><g clip-path="url(#4e83694ee6)"><path stroke-linecap="butt" transform="matrix(0.746667, 0, 0, 0.754286, 81.445312, 141.351348)" fill="none" stroke-linejoin="miter" d="M 0.000000734253 0.000283954 L 28.125 0.000283954 L 28.125 10.937784 L 0.000000734253 10.937784 L 0.000000734253 0.000283954 " stroke="#000000" stroke-width="8" stroke-opacity="1" stroke-miterlimit="4"/></g><g clip-path="url(#93b12f136f)"><g clip-path="url(#3d2293360f)"><g clip-path="url(#20b0b17222)"><path fill="#000000" d="M 132.890625 151.53125 L 253.226562 69.035156 L 263.167969 83.53125 L 142.832031 166.027344 Z M 132.890625 151.53125 " fill-opacity="1" fill-rule="nonzero"/></g></g></g><g clip-path="url(#077668a19c)"><g clip-path="url(#a6dacc16e2)"><g clip-path="url(#4963e37a6f)"><path fill="#ee6055" d="M 179.390625 118.875 L 206.292969 100.175781 L 216.121094 114.316406 L 189.21875 133.015625 Z M 179.390625 118.875 " fill-opacity="1" fill-rule="nonzero"/></g></g></g><g clip-path="url(#6b1b660e10)"><g clip-path="url(#4e18d6bac7)"><g clip-path="url(#287125e947)"><g clip-path="url(#e6815587e9)"><path stroke-linecap="butt" transform="matrix(0.617377, -0.42913, 0.427482, 0.615007, 179.391161, 118.872679)" fill="none" stroke-linejoin="miter" d="M 8.959177 -0.00111583 L 43.885541 -0.00167377 L 34.929632 23.029884 L 0.00326837 23.030442 L 8.959177 -0.00111583 " stroke="#000000" stroke-width="8" stroke-opacity="1" stroke-miterlimit="4"/></g></g></g></g><g clip-path="url(#d87e4f512d)"><g clip-path="url(#69a16128a7)"><g clip-path="url(#f1227bab11)"><path fill="#128ed8" d="M 225.550781 87.824219 L 252.453125 69.125 L 262.28125 83.265625 L 235.382812 101.964844 Z M 225.550781 87.824219 " fill-opacity="1" fill-rule="nonzero"/></g></g></g><g clip-path="url(#20cc072817)"><g clip-path="url(#9b3bc90aac)"><g clip-path="url(#4c1c264ac5)"><g clip-path="url(#e8336f74c1)"><path stroke-linecap="butt" transform="matrix(0.617377, -0.42913, 0.427482, 0.615007, 225.553437, 87.822885)" fill="none" stroke-linejoin="miter" d="M 8.954646 0.000468835 L 43.888242 -0.00139491 L 34.925101 23.031469 L -0.00126263 23.032027 L 8.954646 0.000468835 " stroke="#000000" stroke-width="8" stroke-opacity="1" stroke-miterlimit="4"/></g></g></g></g><g clip-path="url(#1f7e15961c)"><g clip-path="url(#245c562963)"><g clip-path="url(#45362eed62)"><path fill="#003249" d="M 132.890625 151.855469 L 159.792969 133.15625 L 169.621094 147.296875 L 142.71875 165.996094 Z M 132.890625 151.855469 " fill-opacity="1" fill-rule="nonzero"/></g></g></g><g clip-path="url(#4775c983e1)"><g clip-path="url(#79300048d1)"><g clip-path="url(#552694ad9f)"><g clip-path="url(#5d7b631b19)"><path stroke-linecap="butt" transform="matrix(0.617377, -0.42913, 0.427482, 0.615007, 132.892892, 151.852886)" fill="none" stroke-linejoin="miter" d="M 8.957089 -0.00214846 L 43.887719 0.000270292 L 34.927543 23.028852 L 0.0011795 23.02941 L 8.957089 -0.00214846 " stroke="#000000" stroke-width="8" stroke-opacity="1" stroke-miterlimit="4"/></g></g></g></g><g clip-path="url(#a8370eb8a8)"><g clip-path="url(#3c00989fd4)"><g clip-path="url(#1a496433e1)"><path fill="#003249" d="M 144.507812 183.722656 L 280.40625 219.875 L 274.078125 243.65625 L 138.179688 207.503906 Z M 144.507812 183.722656 " fill-opacity="1" fill-rule="nonzero"/></g></g></g><g clip-path="url(#cb7778c867)"><g clip-path="url(#d7b870f043)"><g clip-path="url(#453357c21e)"><g clip-path="url(#58a5da21c9)"><path stroke-linecap="butt" transform="matrix(0.725996, 0.193143, -0.195608, 0.735264, 144.531588, 183.727238)" fill="none" stroke-linejoin="miter" d="M -0.000665836 -0.000744269 L 187.619017 0.000533385 L 187.621194 33.517885 L 0.00151147 33.516607 L -0.000665836 -0.000744269 " stroke="#000000" stroke-width="14" stroke-opacity="1" stroke-miterlimit="4"/></g></g></g></g><g clip-path="url(#10514b5e86)"><g clip-path="url(#9026316965)"><g clip-path="url(#210e7c7eaf)"><path fill="#ee6055" d="M 135.609375 213.96875 L 271.507812 250.121094 L 268.796875 260.3125 L 132.898438 224.160156 Z M 135.609375 213.96875 " fill-opacity="1" fill-rule="nonzero"/></g></g></g><g clip-path="url(#8b93db2ff1)"><g clip-path="url(#d25d42a8ac)"><g clip-path="url(#64a1cffa9f)"><g clip-path="url(#d7ac380d15)"><path stroke-linecap="butt" transform="matrix(0.725996, 0.193143, -0.191539, 0.719968, 135.638506, 213.975747)" fill="none" stroke-linejoin="miter" d="M -0.00201989 0.0016749 L 187.606265 0.000611855 L 187.605765 14.090994 L -0.00251953 14.092057 L -0.00201989 0.0016749 " stroke="#000000" stroke-width="8" stroke-opacity="1" stroke-miterlimit="4"/></g></g></g></g><g clip-path="url(#cc793624e0)"><g clip-path="url(#7b21c6e5ce)"><g clip-path="url(#8e850e31c8)"><path fill="#ee6055" d="M 131.175781 227.546875 L 267.074219 263.699219 L 264.363281 273.894531 L 128.464844 237.738281 Z M 131.175781 227.546875 " fill-opacity="1" fill-rule="nonzero"/></g></g></g><g clip-path="url(#9629130a69)"><g clip-path="url(#3a98cffbc8)"><g clip-path="url(#7c0b464eec)"><g clip-path="url(#8eabac10f9)"><path stroke-linecap="butt" transform="matrix(0.725996, 0.193143, -0.191539, 0.719968, 131.205406, 227.554922)" fill="none" stroke-linejoin="miter" d="M 0.00201011 -0.000864753 L 187.60527 -0.000579798 L 187.606107 14.094869 L 0.00284729 14.094584 L 0.00201011 -0.000864753 " stroke="#000000" stroke-width="8" stroke-opacity="1" stroke-miterlimit="4"/></g></g></g></g></svg>